<svg xmlns="http://www.w3.org/2000/svg" version="1.1" xmlns:xlink="http://www.w3.org/1999/xlink" width="512" height="512" x="0" y="0" viewBox="0 0 474.774 474.774" style="enable-background:new 0 0 512 512" xml:space="preserve" class=""><g><path d="M233.75 206.265 45.24 109.051c-5.736-2.958-5.793-11.144-.093-14.172C61.668 86.104 104.66 64.231 222.612 3.57a32.38 32.38 0 0 1 29.56 0c118.996 61.198 161.801 82.942 178.12 91.668 5.694 3.045 5.617 11.229-.13 14.173l-189.098 96.864a7.998 7.998 0 0 1-7.314-.01zm11.642 20.66v239.836c0 5.954 6.271 9.825 11.59 7.149 15.888-7.993 58.064-29.836 177.17-91.091 10.82-5.56 17.54-16.57 17.54-28.73 0-155.148.211-206.479-.072-224.744-.092-5.924-6.373-9.686-11.646-6.985l-190.229 97.444a8.003 8.003 0 0 0-4.353 7.121zm-20.333-7.14L34.856 121.698c-5.268-2.717-11.551 1.034-11.665 6.96-.347 18.007-.098 68.87-.098 225.432 0 12.16 6.72 23.17 17.54 28.73 119.059 61.23 161.263 83.083 177.17 91.085 5.319 2.676 11.59-1.195 11.59-7.149v-239.86a8.004 8.004 0 0 0-4.334-7.111z" fill="#3f4654" opacity="1" data-original="#000000" class=""></path></g></svg>